<svg version="1.1" id="Layer_1" xmlns="http://www.w3.org/2000/svg" xmlns:xlink="http://www.w3.org/1999/xlink" viewBox="0 0 512 512" xml:space="preserve" fill="#000000"><g id="SVGRepo_bgCarrier" stroke-width="0"></g><g id="SVGRepo_tracerCarrier" stroke-linecap="round" stroke-linejoin="round"></g><g id="SVGRepo_iconCarrier"> <rect x="38.4" y="422.4" style="fill:#437059;" width="64" height="51.2"></rect> <polygon style="fill:#1E2E3B;" points="217.6,473.6 153.6,473.6 153.6,422.4 217.6,435.2 "></polygon> <polygon style="fill:#BF3C1A;" points="512,140.8 371.2,140.8 371.2,320 512,320 497.373,268.805 460.8,230.4 497.373,191.995 "></polygon> <polygon style="fill:#FF9811;" points="486.4,230.4 497.371,192 371.2,192 371.2,268.8 497.371,268.8 "></polygon> <path style="fill:#b1c8b3;" d="M290.56,310.715l-89.009-44.273c-10.461-7.36-22.077-13.188-34.519-17.17l-7.48-3.721l-0.696,1.4 c-9.883-2.446-20.216-3.752-30.856-3.752c-70.693,0-128,57.306-128,128v64h217.6V331.607l72.96,36.291V310.715z"></path> <path style="fill:#5A8BB0;" d="M290.56,310.715l-89.009-44.273c-10.461-7.36-22.077-13.188-34.519-17.17l-7.48-3.721l-0.696,1.4 c-9.883-2.446-20.216-3.752-30.856-3.752c0,55.04,0,192,0,192h89.6V331.607l72.96,36.291V310.715z"></path> <circle style="fill:#adbec7;" cx="128" cy="166.4" r="128"></circle> <path style="fill:#b1c8b3;" d="M128,38.4c70.693,0,128,57.307,128,128s-57.307,128-128,128"></path> <rect x="38.4" y="358.4" style="fill:#437059;" width="179.2" height="38.4"></rect> <rect x="128" y="358.4" style="fill:#1E2E3B;" width="89.6" height="38.4"></rect> <path style="fill:#437059;" d="M201.466,115.2H54.533C44.38,129.725,38.4,147.373,38.4,166.4s5.98,36.675,16.133,51.2h146.932 c10.154-14.525,16.134-32.173,16.134-51.2S211.62,129.725,201.466,115.2z"></path> <path style="fill:#1E2E3B;" d="M201.466,115.2H128v102.4h73.466c10.154-14.525,16.134-32.173,16.134-51.2 S211.62,129.725,201.466,115.2z"></path> <rect x="281.6" y="102.4" style="fill:#df7358;" width="128" height="179.2"></rect> <rect x="281.6" y="153.6" style="fill:#FFDA44;" width="128" height="76.8"></rect> <rect x="281.6" y="102.4" style="fill:#437059;" width="38.4" height="371.2"></rect> <rect x="281.6" y="102.4" style="fill:#1E2E3B;" width="38.4" height="179.2"></rect> <polygon style="fill:#802812;" points="371.2,281.6 371.2,320 409.6,281.6 "></polygon> </g></svg>